<svg xmlns="http://www.w3.org/2000/svg" xmlns:xlink="http://www.w3.org/1999/xlink" viewBox="0 0 11493 2011">
  <defs>
    <style>
      .cls-1{fill:#333;stroke:#333;stroke-miterlimit:10;stroke-width:10.67405px}
    </style>
    <symbol id="logo-brand" data-name="logo-brand" viewBox="0 0 11493 2011">
      <g id="Logo-brand-3" data-name="Logo-brand">
        <path d="M10674 1345c6-1 13-6 17-11 17-20 29-43 40-66 24-49 46-101 51-155 2-14-1-32-15-35-11-2-20 10-26 20-28 49-50 102-67 156-5 17-34 78-9 90a14 14 0 0 0 9 1zm-208 28c8 2 17 0 23-6 8-7 10-17 11-27a104 104 0 0 0-8-50c-3-6-6-11-10-15-5-4-10-7-16-9-24-9-65-18-59 21a160 160 0 0 0 21 56c7 11 15 21 26 27a37 37 0 0 0 12 3z" class="cls-1"/>
        <path d="M11473 1682a22 22 0 0 0-14 3c-8 4-13 10-19 16a142 142 0 0 1-109 41c-16-1-32-6-44-16-40-36 17-117 34-153 19-41 33-96-1-133a95 95 0 0 0-120-11c-18 13-33 33-56 33-27 1-50-47-75-14a91 91 0 0 0-16 41c-16 129-98 317-241 335a692 692 0 0 1-126 3c-26-2-60-13-59-39 0-11 7-21 14-29 37-44 84-77 123-118s70-96 63-152c-2-15-6-29-16-40-26-32-76-25-113-8a353 353 0 0 0-205 305c-2 64-103 64-152 60a31 31 0 0 1-23-9 30 30 0 0 1-4-21c10-124 120-216 162-333 4-10 6-22-1-29a26 26 0 0 0-17-5c-29-1-54-1-69 26l-105 192c-31 55-54 112-71 173a5 5 0 0 1-5 4c-27 6-53 12-80 20-28 8-69 18-93-5-22-21-20-60-16-87a859 859 0 0 1 42-163 387 387 0 0 0 23-72c11-72-27-140-64-203-10-16-22-35-42-38-30-3-48 33-57 62a1025 1025 0 0 1-118 244c-46 70-100 146-162 202-68 62-243 110-217-42 11-65 53-120 70-184a69 69 0 0 0 2-35 62 62 0 0 0-27-33 171 171 0 0 0-134-21 307 307 0 0 0-123 65 516 516 0 0 0-178 301 215 215 0 0 0-5 54 95 95 0 0 0 17 50c87 122 239-68 291-127-10 12 17 58 24 68 16 20 38 35 63 42 65 19 135-11 188-46 108-69 195-187 273-287 21-27 110-189 130-89 10 50-10 102-33 148s-50 92-55 143a142 142 0 0 0 0 27 109 109 0 0 0 67 99c80 21 159-21 226-60l4-1a5 5 0 0 1 2 2c22 22 53 43 85 43 62 6 124-13 179-38l22-10c16 24 30 44 59 55 26 10 54 12 81 13 116 2 244-20 320-109 81-94 96-222 207-294a71 71 0 0 1 48-12c70 14-15 138-26 169-12 32-15 77 7 106 28 39 86 33 128 26 28-4 57-10 83-23 13-5 104-75 54-82zm-2118-30a425 425 0 0 1-60 89 525 525 0 0 1-79 75 274 274 0 0 1-77 44c-12-2-18-8-19-17l-3-26a195 195 0 0 1 17-96 291 291 0 0 1 57-85 308 308 0 0 1 85-62 262 262 0 0 1 95-28 87 87 0 0 0 2 9l1 9a166 166 0 0 1-19 88zm1246 25a232 232 0 0 1 53-114 129 129 0 0 1 88-53l2-1a810 810 0 0 1-48 108c-19 27-59 70-95 60zM9181 319c-7-65-23-130-55-187-73-127-214-174-327-68-202 191-283 530-311 813a1385 1385 0 0 0-4 323 379 379 0 0 0 43 126c20 32 51 60 87 75 12 5 21 8 27 7a119 119 0 0 0 38 1c-7 1-55-253-58-278a1394 1394 0 0 1-3-302c19-200 82-397 185-570 31-51 72-104 131-111 53-5 104 33 129 81s28 103 27 157c-2 354-122 733-272 1050a1030 1030 0 0 1-141 221c-57 68-146 108-232 67-88-42-152-140-234-194-84-56-197-86-286-38 89-91 119-222 169-338 47-109 115-209 171-314s100-221 97-341c-87 14-143 96-185 173-110 201-197 413-295 620-50 104-102 207-161 306-57 94-142 180-185 280a96 96 0 0 0-9 58l1 4c4 13 12 23 22 31 16 17 47 29 97 34 57 6 93-131 121-216 27-52 59-99 97-133 36-26 77-42 121-42 210 1 285 282 500 295 140 9 259-101 339-216 152-219 230-481 290-741a2058 2058 0 0 0 66-633zM6454 1863c-28 0-57 6-85 11-73 13-149 35-223 15-15-4-33-13-32-29 0-10 7-18 14-24 79-77 192-131 208-251 11-83-66-94-129-70-71 28-133 79-174 143-23 35-29 71-45 108-18 40-62 32-104 37-16 2-32 4-47-2-20-8-33-30-35-52s3-44 11-65c36-102 103-189 159-281 69-113 123-235 185-352 11-21 23-44 22-69-1-38-40-61-68-34-39 38-69 96-98 142a2509 2509 0 0 0-170 308c-5 11-10 22-19 30-26 19-61-2-89-7-38-6-77-1-114 8-71 18-135 58-191 104a470 470 0 0 0-103 121c-35 58-52 134-35 202 6 24 19 48 40 61 15 9 32 13 50 14 137 11 223-129 326-197 26 33 27 71 59 100 39 37 92 56 145 52 16-1 66-24 77-18 6 3 12 32 17 39 8 12 19 23 31 31 25 18 55 26 85 31 122 19 283-6 386-78 31-21-8-26-26-27a226 226 0 0 0-28-1zm-688-324c-3 9-10 18-16 25-67 69-134 139-208 201-34 29-70 56-111 71-16 5-36 8-46-5-4-6-5-14-6-21-16-184 186-309 353-301 12 1 27 4 33 16a21 21 0 0 1 1 14zm335 193a11 11 0 0 1-4-2 301 301 0 0 1 21-51 248 248 0 0 1 35-51 199 199 0 0 1 46-39 102 102 0 0 1 54-16 99 99 0 0 1-16 48 299 299 0 0 1-38 52 263 263 0 0 1-48 42 85 85 0 0 1-46 17zm-1514-639l-8-1c-63 6-344 73-308 177 14 37 68 33 103 51a96 96 0 0 1 46 92 173 173 0 0 1-44 98 330 330 0 0 1-137 94 195 195 0 0 1-145 5c-55-20-54-126-80-127-99-2-193 33-292 29-54-2-143-23-63-81a1402 1402 0 0 0 124-98 201 201 0 0 0 65-140 78 78 0 0 0-19-54c-24-25-65-20-98-9-123 42-231 159-238 292a165 165 0 0 0 0 35 445 445 0 0 1-113 18c-113-3-80-122-47-194 25-55 57-109 61-170 3-61-24-120-51-176-10-20-25-44-48-44-23 1-37 27-46 49a1065 1065 0 0 1-180 286l-62 66c5-49-10-98-57-143a170 170 0 0 0-73-41c-16-4-54 0-61-14-6-12 6-22 9-32 13-46 46-93 67-135l85-172c6-10 43-67 39-78a70 70 0 0 0-24-37 29 29 0 0 0-23-3 72 72 0 0 0-27 20c-51 56-82 161-116 228-103 199-195 399-327 581l-19-80-223 80c-29 10-63 19-86-1-24-21-18-59-9-89a1626 1626 0 0 1 90-235c10-20 19-40 21-61s-6-46-24-57c-21-12-48-4-70 5-45 18-87 42-126 69-32 22-68 61-108 64-6-41-12-86-57-102-30-10-64-2-91 15-9 5-17 12-28 12-9 1-17-4-26-6-29-6-53 22-69 46a3196 3196 0 0 0-203 351c-39-3-80-6-113-27-134-82 93-302 92-412a99 99 0 0 0-68 36c-73 74-128 163-194 243a591 591 0 0 1-178 156 509 509 0 0 0-63 14 890 890 0 0 1 136-263 141 141 0 0 0 27-48 44 44 0 0 0-16-48c-24-14-53 8-71 29-50 59-190 248-202 378q-57 25-113 53c-104 50-399 212-498 91-61-75-18-241 1-324a1385 1385 0 0 1 212-465 2191 2191 0 0 1 236-291c62-65 118-138 189-193 30-23 155-101 192-74 35 25-4 111-14 141-32 101-103 212-112 317 0 0 115-65 126-74a533 533 0 0 0 183-383c1-28 0-58-13-83-31-57-108-67-172-57-220 32-393 202-531 376a3249 3249 0 0 0-374 596c-107 222-269 655 110 728 94 17 190-9 279-42 254-93 483-238 678-425 56 94 174 122 276 114 18-2 35-4 50-13 19-12 32-32 43-51l136-230c21-36 47-75 88-82 11-3 25-1 33 8 10 11 5 29 0 44l-78 221c-6 14-11 30-9 45s14 31 30 31c18 1 31-18 40-35a1087 1087 0 0 1 238-299c20-18 47-36 71-24 18 9 25 33 22 53s-16 38-26 56c-38 64-107 214-36 278a117 117 0 0 0 101 28 346 346 0 0 0 101-38l114-58 35-15v7a103 103 0 0 0 8 40 155 155 0 0 0 96 77 308 308 0 0 0 163 2c59-14 134-55 196-109 35-9 108-97 130-117q81-75 157-155c26-27 139-191 145-75 6 101-87 163-110 255-12 50 0 109 42 138 34 24 79 23 120 15 44-9 85-27 125-44 20 59 77 91 136 97 111 11 214-13 318-49-33 11 57 126 69 135 49 35 121 42 179 31a390 390 0 0 0 247-149 292 292 0 0 0 63-169c2-68-32-117-77-163 26-26 61-36 93-50 31-13 62-37 62-70 0-5 0-10-4-12zm-1709 275a303 303 0 0 1-52 55 13 13 0 0 1-4-2l3 3-19 15a404 404 0 0 1-93 48 259 259 0 0 1-89 19 174 174 0 0 1 10-50 584 584 0 0 1 26-66 798 798 0 0 1 37-72 601 601 0 0 1 44-65 277 277 0 0 1 46-47 72 72 0 0 1 44-19 63 63 0 0 1 60 29 140 140 0 0 1 16 67 142 142 0 0 1-29 85zm731-9a211 211 0 0 1 60-109 145 145 0 0 1 93-47h2s-50 97-58 105c-23 27-58 62-97 51z" class="cls-1"/>
      </g>
    </symbol>
  </defs>
  <g id="Layer_2" data-name="Layer 2">
    <use id="_brand_" width="11493" height="2011" data-name="&lt;brand&gt;" xlink:href="#logo-brand"/>
  </g>
</svg>