<svg xmlns="http://www.w3.org/2000/svg" xmlns:xlink="http://www.w3.org/1999/xlink" viewBox="0 0 2007 2006">
  <defs>
    <style>
      .cls-1{fill:#6a6a6a}.cls-2{fill:#333}
    </style>
    <symbol id="logo-simple" data-name="logo-simple" viewBox="0 0 2007 2006">
      <path id="sky" d="M475 443c18-22 39-52 66-64 35-14 47 25 49 53 6 78 4 156 21 233 14 62 29 131 77 176 129 121 311-1 422-111l47-51c138-162 215-373 287-572A995 995 0 0 0 0 996a1004 1004 0 0 0 9 136c130-201 343-525 466-689z" class="cls-1"/>
      <g id="wanderer">
        <path d="M1702 1073c-8-22-24-42-39-60-19 18-19 46-13 73 5 21 14 42 22 56-2-3 23-33 26-37 8-14 9-17 4-32z" class="cls-2"/>
        <path fill="#333" stroke="#fff" stroke-miterlimit="10" stroke-width="12" d="M1488 124c-37 192-112 380-220 542a912 912 0 0 1-251 252c-82 55-187 104-288 82-102-23-172-126-206-219-24-64-32-133-27-202L15 1181c86 466 494 819 985 819h28c-13-18-36-33-40-55v-26c-1-28-18-43-38-61-10-8-20-17-28-27-9-11-7-18 0-25-7-1-11-4-9-16l1-1v-2l1-1v-1l1-2a46 46 0 0 1 4-5v-1l3-4a506 506 0 0 0 32-50c9-18 19-37 38-46 18-8 40-3 61 1 12 2 26 3 39-1 15-4 30-26 46-25 4 0 8 3 12 4a83 83 0 0 0 27 8c13 2 25 0 38-1l46-4c13-3 25-8 36-15 4-3 5-4 8 0l8 8 4 5c6 6 11 11 10 12s-2 0-11-1l20 5c7 2 17 0 20-7a1354 1354 0 0 1-5-239c0-20-3-40-3-59 1-10 2-20 5-30 2-7 7-16 3-24l-10-9c-3-5-2-12 0-17 2-6 6-10 9-15 20-31 10-67 8-101-2-40-1-81 10-121 4-17 10-34 13-52 8-44-1-95 27-130 13-17 33-28 54-36 17-7 35-14 43-30s2-35-5-52c-3-9-6-17-12-24-5-6-11-11-14-18-4-7-1-17 6-19l-17-6a37 37 0 0 1 29-23l-12-4c16-17 40-20 62-21 25-1 53 1 70 18 12 13 17 31 15 49s-8 33-17 49c-3 6-7 12-8 19-3 12 2 25 10 34 8 10 19 17 30 23a398 398 0 0 0 45 21c11 5 23 9 31 17 14 14 16 36 21 56 9 39 34 73 50 110 5 11 10 23 11 36 5 48-37 92-59 132-8 13-19 21-32 30l-4 2c-6 15 9 46 13 62l20 74 12 41 31 115c5 22 8 48 19 69a1001 1001 0 0 0-318-1469z"/>
        <path d="M1659 1524c-3 20 6 27 25 23 8-1 16-2 24 0 12 4 20 14 28 22l18 18v1a126 126 0 0 0 9 9c2 1 7 5 10 3a4 4 0 0 0 2-2l1-7-5-19-7-18-15-59-8-31c-1-9-3-19-9-26-2-3-51 49-58 49-15 0-13 26-15 37zm-229 33l-7 70-5 35-3 12c-1 6-1 11 3 15 7 9 23 3 31 11s10 4 17-1a12 12 0 0 1 4-3 14 14 0 0 1 13 1h1a17 17 0 0 1 5 5 21 21 0 0 1 4 9 24 24 0 0 1 0 11l-4 11a23 23 0 0 0 0 18l5 9 5 11a40 40 0 0 0 17 14l18 5a7 7 0 0 1 3 2l4 1c4-5 6-11 6-17l1-18 3-32 2-24 7-68a451 451 0 0 1 3-26c3-34 15-66 20-99 2-7 0-14 1-21 2-18 5-36 6-55 0-2 0-5-2-8-4-5-32 8-42 4-7-3-12-8-19-10-6-2-12 0-18 1-20 4-42-6-61-1-15 3-10 32-10 43v2c-1 31-5 62-8 93z" class="cls-2"/>
      </g>
      <path id="mountain" d="M1334 1666c-7-10-15-28-28-31-8-2-16 2-24 6-38 18-82 18-123 9-12-3-23-6-34-3-12 4-20 15-32 21-24 11-53-7-80-6-25 2-45 20-59 40s-23 42-37 62c-8 12-18 25-17 39 2 15 16 14 24 4l22-30c7-8 15-18 26-18h8c10-2 14-15 22-21 10-7 24-3 36-6 11-4 20-16 32-15 7 0 13 5 20 5 13-1 19-20 31-22 11-2 20 9 30 15 20 14 48 7 73 9 26 3 49 16 74 24a199 199 0 0 0 86 8c8-1 18-4 19-12 1-4-1-9-4-13-10-10-20-10-32-10-13-1-25-8-36-14-19-10-27-17-28-26-1-6 1-13 7-16 2-2 5-1 10-1l14 2z" class="cls-1"/>
    </symbol>
  </defs>
  <g id="Layer_2" data-name="Layer 2">
    <g id="_brand_" data-name="&lt;brand&gt;">
      <use id="logo-simple-3" width="2007" height="2006" data-name="logo-simple" xlink:href="#logo-simple"/>
    </g>
  </g>
</svg>