<svg xmlns="http://www.w3.org/2000/svg" xmlns:xlink="http://www.w3.org/1999/xlink" viewBox="0 0 3713 2006">
  <defs>
    <style>
      .cls-1{fill:#6a6a6a}.cls-2{fill:#333}
    </style>
    <symbol id="logo-whole" data-name="logo-whole" viewBox="0 0 3713 2006">
      <g id="Logo-whole-3" data-name="Logo-whole">
        <path id="sky" d="M2181 443c17-22 39-52 66-64 35-14 47 25 49 53 6 78 4 156 21 233 14 62 28 131 77 176 129 121 311-1 422-111 17-18 33-35 46-51 138-162 215-373 288-572a995 995 0 0 0-1444 889 1004 1004 0 0 0 9 136c130-201 343-525 466-689z" class="cls-1"/>
        <g id="wanderer">
          <path d="M3407 1073c-8-22-23-42-39-60-18 18-18 46-12 73 5 21 14 42 21 56-1-3 24-33 27-37 8-14 9-17 3-32zm-691 355a166 166 0 0 0 12-24h-1a33 33 0 0 0-22 12 48 48 0 0 0-13 25c9 2 19-7 24-13z" class="cls-2"/>
          <path fill="#333" stroke="#fff" stroke-miterlimit="10" stroke-width="12" d="M3194 124c-38 192-113 380-221 542a912 912 0 0 1-250 252c-82 55-187 104-288 82-102-23-172-126-207-219-24-64-32-133-27-202l-481 602c86 466 495 819 985 819h28c-13-18-35-33-39-55-2-8-1-17-1-26-1-28-18-43-37-61-10-8-21-17-29-27-9-11-6-18 0-25-7-1-11-4-8-16v-2l1-1v-1l1-1v-2h1a46 46 0 0 1 3-5v-1l3-4a506 506 0 0 0 32-50c10-18 20-37 38-46 19-8 41-3 61 1 13 2 27 3 39-1 16-4 30-26 46-25 5 0 8 3 12 4a83 83 0 0 0 27 8c13 2 26 0 38-1l46-4c13-3 25-8 37-15 3-3 4-4 7 0l8 8 5 5c6 6 10 11 9 12l-11-1 20 5c8 2 17 0 21-7 2-4 1-8 1-13a1354 1354 0 0 1-6-226c-1-20-4-40-3-59 0-10 1-20 4-30 2-7 8-16 3-24l-9-9c-4-5-3-12-1-17l10-15c19-31 9-67 7-101-2-40 0-81 10-121 5-17 11-34 14-52 7-44-2-95 26-130 14-17 34-28 54-36 17-7 36-14 44-30s1-35-5-52c-3-9-7-17-13-24-4-6-11-11-14-18s-1-17 6-19l-16-6a37 37 0 0 1 28-23l-12-4c16-17 40-20 63-21 25-1 52 1 70 18 12 13 16 31 15 49s-9 33-17 49c-4 6-7 12-9 19-2 12 3 25 11 34 8 10 18 17 29 23a398 398 0 0 0 45 21c11 5 23 9 32 17 14 14 16 36 20 56 10 39 34 73 51 110 5 11 9 23 11 36 4 48-38 92-60 132-7 13-18 21-31 30l-5 2c-6 15 9 46 13 62l21 74 12 41c11 38 20 76 30 115 6 22 8 48 19 69a1001 1001 0 0 0-318-1469zm-349 1275a19 19 0 0 0-12 3 73 73 0 0 0-27 27c-10 16-19 35-35 46-19 13-46 15-68 15a51 51 0 0 1-24-6 27 27 0 0 1-7-6 42 42 0 0 1-3-4 35 35 0 0 1-5 3 94 94 0 0 1-39 8c-10 0-20-2-26-9a18 18 0 0 1-1-1c-8 7-37 14-42 14a38 38 0 0 1-14-1c-10-3-17-12-17-21a27 27 0 0 1 0-6c1-11 8-21 14-31 5-10 10-21 8-32-5-22-27 14-32 19a562 562 0 0 1-43 44c-5 4-20 21-31 21l-7 4a50 50 0 0 1-34 3c-12-3-20-12-20-23-13 13-50 54-72 27a19 19 0 0 1-4-11 41 41 0 0 1 1-11c6-26 21-49 44-66a79 79 0 0 1 30-14 47 47 0 0 1 34 5 14 14 0 0 1 6 7 13 13 0 0 1 0 8c-4 13-15 26-18 40-1 9 2 20 12 22a30 30 0 0 0 11 0l14-2c18-8 37-32 47-44a216 216 0 0 0 39-64c2-7 6-14 14-14 5 1 8 5 10 9 9 13 18 28 16 44a77 77 0 0 1-6 15 169 169 0 0 0-10 36c-1 7-1 17 7 21a25 25 0 0 0 14 0l27-6v-1a23 23 0 0 1 1-8 60 60 0 0 1 7-16l35-55c3-6 10-6 17-5a7 7 0 0 1 4 1c2 1 1 4 0 6-10 25-37 45-40 72a6 6 0 0 0 1 5 8 8 0 0 0 6 2 81 81 0 0 0 38-7 38 38 0 0 1 0-14c4-26 24-49 51-59 26-9 39 12 24 33-5 9-13 15-21 21-10 7-33 23-13 32 10 5 24 1 35-1 23-5 32-14 44-34 7-12 15-26 17-40a18 18 0 0 1 4-9 8 8 0 0 1 10-1l2 2a11 11 0 0 0 12 1l10-7c9-5 20-3 28 3 8 8 5 20 0 29-4 8-10 17-11 26a7 7 0 0 0 1 6 9 9 0 0 0 6 4c13 3 26-1 34-9 2-2 5-4 7-3a4 4 0 0 1 4 4c-2 6-11 11-16 13-6 3-12 4-19 5-10 2-20 3-30-1-9-6-9-18-6-27 3-7 24-34 7-37zm-732 16c12 8 22 19 35 28 25 18 49 14 70-7a222 222 0 0 0 34-47 456 456 0 0 0 29-65q13-35 22-68t14-60l2-11 1-22a66 66 0 0 0-7-36 37 37 0 0 0-24-17l-1-1h-1a34 34 0 0 0-5 0h-1c-15 2-26 14-34 25a282 282 0 0 0-28 53l-2 8c-8 27-15 57-16 87a265 265 0 0 0 2 41l9 38 1 4c3 6 7 12 5 18a33 33 0 0 1-9-1 16 16 0 0 1-7-1 46 46 0 0 1-21-16 76 76 0 0 1-10-26l-1-2c-2-10-2-21-2-32a266 266 0 0 1 3-38c7-61 27-135 77-176 23-20 53-21 72 3l1 2a72 72 0 0 1 14 22 111 111 0 0 1 7 28 206 206 0 0 1-3 66c-9 70-29 142-65 204-10 17-23 35-40 50l-2 2a77 77 0 0 1-19 13 76 76 0 0 1-75 1c-16-8-28-21-41-33a78 78 0 0 0-49-22 55 55 0 0 0-30 9c-9 8-17 18-24 29-7 19-16 48-30 47-12-1-20-4-24-7a14 14 0 0 1-5-7v-1a19 19 0 0 1 2-13c7-14 19-26 30-38l27-40 21-35 30-57c12-21 27-58 47-87 10-17 23-32 37-38a60 60 0 0 1 10-5v2h1a117 117 0 0 1-1 20 42 42 0 0 1-5 18h-1c-9 25-27 51-42 74l-15 25c-10 23-28 69-43 77h-1c28-10 59-1 81 15zm531-64a3 3 0 0 1 1 0c2-3 14 0 17 2a17 17 0 0 1 4 14 9 9 0 0 1-1 5 7 7 0 0 1-7 3 13 13 0 0 1-7-4c-4-3-10-16-7-20zm65-2a177 177 0 0 1 16-33 11 11 0 0 1 4-5 5 5 0 0 1 3 0c4 1 4 5 4 8a91 91 0 0 1-10 27c-2 5-11 22-17 23-9 1-2-15 0-20z"/>
          <path d="M2390 1414a17 17 0 0 1 0-2 71 71 0 0 0-24 6 76 76 0 0 0-20 14 63 63 0 0 0-14 18 38 38 0 0 0-5 21l1 6c0 2 2 3 5 3a70 70 0 0 0 19-9 124 124 0 0 0 19-16 92 92 0 0 0 15-20 33 33 0 0 0 5-19 20 20 0 0 0-1-2zm975 110c-3 20 6 27 25 23 8-1 16-2 24 0 12 4 20 14 28 22l17 18 1 1a126 126 0 0 0 9 9c2 1 7 5 10 3a4 4 0 0 0 2-2v-7c0-6-2-13-4-19l-7-18-15-59-8-31c-1-9-3-19-9-26-2-3-51 49-58 49-15 0-13 26-15 37zm-229 33l-7 70-6 35-2 12c-1 6-1 11 3 15 7 9 23 3 31 11s10 4 17-1a12 12 0 0 1 4-3 14 14 0 0 1 13 1h1a17 17 0 0 1 5 5 21 21 0 0 1 4 9 24 24 0 0 1 0 11l-4 11a23 23 0 0 0 0 18l5 9 5 11a40 40 0 0 0 17 14l18 5a7 7 0 0 1 3 2l4 1c4-5 5-11 6-17l1-18 3-32 2-24 7-68a451 451 0 0 1 3-26c3-34 15-66 20-99l1-21c2-18 5-36 6-55 0-2 0-5-2-8-4-5-32 8-42 4-7-3-12-8-19-10-6-2-12 0-18 1-20 4-43-6-62-1-14 3-10 32-9 43v2c-1 31-5 62-8 93z" class="cls-2"/>
        </g>
        <path id="mountain" d="M3039 1666c-6-10-14-28-27-31-8-2-16 2-24 6-38 18-83 18-124 9-11-3-22-6-33-3-12 4-21 15-32 21-25 11-53-7-80-6-25 2-45 20-59 40s-23 42-37 62c-8 12-19 25-17 39 2 15 16 14 23 4l23-30c7-8 15-18 25-18h9c10-2 13-15 22-21 10-7 24-3 36-6 11-4 20-16 32-15 7 0 13 5 20 5 13-1 18-20 31-22 11-2 20 9 29 15 21 14 49 7 74 9 25 3 49 16 74 24a199 199 0 0 0 86 8c8-1 18-4 19-12 1-4-1-9-5-13-9-10-19-10-31-10-13-1-25-8-36-14-19-10-28-17-28-26-1-6 1-13 6-16 3-2 6-1 11-1l13 2z" class="cls-1"/>
        <path id="brand" d="M1666 1520c-7-2-15-2-22-2-20 0-41 1-59-8-4-1-8-5-7-9l5-5c25-16 57-24 67-54 7-21-12-28-29-25a98 98 0 0 0-53 28c-8 8-11 17-17 25-7 10-18 5-29 4-4 0-8 0-12-3-5-3-7-9-6-15s3-11 6-16c14-24 36-43 56-64 23-26 44-54 66-81 4-5 8-10 9-17 2-10-7-18-16-12-12 7-23 21-32 31a660 660 0 0 0-60 71c-2 2-4 5-7 6-8 4-16-3-22-6-10-3-20-4-30-4-19 1-38 8-55 17a124 124 0 0 0-33 26 73 73 0 0 0-19 50c0 7 2 13 7 18 3 3 7 5 12 6 35 10 64-21 94-33 5 9 4 19 10 28a51 51 0 0 0 35 21c4 1 18-2 21 0l2 11a30 30 0 0 0 6 9c6 6 13 10 21 13 30 11 73 13 103 0 9-4 0-7-5-9a60 60 0 0 0-7-1zm-161-120l-5 6c-21 14-42 29-64 41-10 5-21 10-33 12-4 1-9 0-11-3a10 10 0 0 1 0-6c5-49 63-70 106-59 3 1 7 2 8 5a5 5 0 0 1-1 4zm77 67a3 3 0 0 1-1 0 79 79 0 0 1 8-12 65 65 0 0 1 12-12 52 52 0 0 1 13-7 27 27 0 0 1 15-2 26 26 0 0 1-6 12 79 79 0 0 1-13 11 69 69 0 0 1-15 9 22 22 0 0 1-12 2zm-376-166a4 4 0 0 0-3 0c-16 1-90 19-80 46 3 10 17 9 27 14a25 25 0 0 1 12 24 45 45 0 0 1-12 25 87 87 0 0 1-36 25 51 51 0 0 1-38 2c-15-6-14-34-21-34-26 0-51 9-77 8-14-1-38-6-16-21a369 369 0 0 0 32-26 53 53 0 0 0 17-37 21 21 0 0 0-5-14c-6-7-17-6-26-3a92 92 0 0 0-62 77 44 44 0 0 0 0 9 117 117 0 0 1-30 5c-30-1-21-32-12-51 6-15 15-29 16-45 0-16-7-31-14-46-2-5-6-12-12-12-6 1-10 7-13 13a280 280 0 0 1-47 75l-16 18c1-13-3-26-15-38a45 45 0 0 0-19-11c-4-1-15 1-17-3-1-3 2-6 3-9 3-12 12-24 18-35l22-45c1-3 11-18 10-21a18 18 0 0 0-6-10 8 8 0 0 0-6-1 19 19 0 0 0-7 6c-14 15-22 42-31 60-27 52-51 105-86 153l-5-21-59 21c-7 2-16 5-22-1-7-5-5-15-3-23a428 428 0 0 1 24-62c3-5 5-10 6-16s-2-12-7-15-12-1-18 1a178 178 0 0 0-33 19c-9 5-18 16-29 16-1-10-3-22-15-26-8-3-17-1-24 3-2 2-4 4-7 4l-7-2c-7-1-14 6-18 12a841 841 0 0 0-53 93c-11-1-21-2-30-8-35-21 24-79 24-108a26 26 0 0 0-18 10c-19 19-34 42-51 64-13 16-28 31-47 41a134 134 0 0 0-16 3 234 234 0 0 1 36-69 37 37 0 0 0 7-13 11 11 0 0 0-5-12c-6-4-13 2-18 7-13 16-50 66-53 100l-30 14c-28 13-105 56-131 24-16-20-5-64 0-86a364 364 0 0 1 56-122 576 576 0 0 1 62-76c16-17 31-37 50-51 8-6 40-27 50-20 9 7-1 29-3 37-9 27-27 56-30 84 0 0 30-17 33-20 30-24 47-62 48-100 1-8 0-16-3-22-8-15-28-18-45-15-58 8-104 53-140 99a855 855 0 0 0-98 156c-29 59-71 173 29 192 24 5 50-2 73-11 67-25 127-63 178-112 15 25 46 32 73 30 5 0 9-1 13-3 5-3 8-9 11-14l36-60c6-10 13-20 23-22 3 0 7 0 9 2 3 3 1 8 0 12l-21 58-2 12c0 4 4 8 8 8 5 0 8-5 10-9a286 286 0 0 1 63-79c5-5 13-9 19-6 5 2 7 9 6 14s-4 10-7 14c-10 17-28 57-10 74a31 31 0 0 0 27 7 91 91 0 0 0 26-10l31-15c2-2 6-3 9-4v2a27 27 0 0 0 2 10 41 41 0 0 0 25 21 81 81 0 0 0 43 0c16-4 35-14 52-29 9-2 28-25 34-30l41-41c7-7 37-50 38-20 2 27-23 43-29 67-3 13 0 29 11 37 9 6 21 5 32 3 12-2 22-7 33-11 5 15 20 24 36 25 29 3 56-3 83-13-8 3 15 34 19 36 12 9 31 11 47 8a103 103 0 0 0 64-39 77 77 0 0 0 17-45c1-18-8-30-20-43 7-6 16-9 24-13 8-3 17-9 17-18l-1-3zm-450 72a80 80 0 0 1-14 15 4 4 0 0 1-1-1l1 1-5 4a106 106 0 0 1-24 13 68 68 0 0 1-24 4 46 46 0 0 1 3-13 154 154 0 0 1 7-17 210 210 0 0 1 9-19 158 158 0 0 1 12-17 73 73 0 0 1 12-13 19 19 0 0 1 11-4 16 16 0 0 1 16 7 37 37 0 0 1 5 18 37 37 0 0 1-8 22zm192-2a56 56 0 0 1 16-29 38 38 0 0 1 24-12h1l-15 27c-6 8-16 17-26 14z" class="cls-2"/>
      </g>
    </symbol>
  </defs>
  <g id="Layer_2" data-name="Layer 2">
    <use id="_brand_" width="3713" height="2006" data-name="&lt;brand&gt;" xlink:href="#logo-whole"/>
  </g>
</svg>